<mxfile host="Electron" modified="2023-05-20T07:17:05.617Z" agent="Mozilla/5.0 (Windows NT 10.0; Win64; x64) AppleWebKit/537.36 (KHTML, like Gecko) draw.io/21.2.1 Chrome/112.0.5615.87 Electron/24.1.2 Safari/537.36" etag="GD2zx24MKPjmtAkdzhaL" version="21.2.1" type="device">
  <diagram name="Page-1" id="0P6t54efZhLygrvzeZHe">
    <mxGraphModel dx="3475" dy="-3927" grid="0" gridSize="10" guides="1" tooltips="1" connect="1" arrows="1" fold="1" page="1" pageScale="1" pageWidth="850" pageHeight="1100" math="0" shadow="0">
      <root>
        <mxCell id="0" />
        <mxCell id="1" parent="0" />
        <mxCell id="-hy4o45iwRQPWopqjuvy-1" value="" style="edgeStyle=orthogonalEdgeStyle;rounded=0;orthogonalLoop=1;jettySize=auto;html=1;fontFamily=Calibri;fontSize=12;" edge="1" parent="1" source="-hy4o45iwRQPWopqjuvy-2" target="-hy4o45iwRQPWopqjuvy-5">
          <mxGeometry relative="1" as="geometry" />
        </mxCell>
        <mxCell id="-hy4o45iwRQPWopqjuvy-2" value="&lt;span style=&quot;font-size: 12px;&quot;&gt;&amp;nbsp;Ticks_OVFs &lt;br style=&quot;font-size: 12px;&quot;&gt;&amp;nbsp; &amp;lt; requ_Number of OVFs&lt;/span&gt;" style="rhombus;whiteSpace=wrap;html=1;fillColor=#fff2cc;strokeColor=#d6b656;fontFamily=Calibri;fontSize=12;" vertex="1" parent="1">
          <mxGeometry x="160" y="5835" width="178" height="160" as="geometry" />
        </mxCell>
        <mxCell id="-hy4o45iwRQPWopqjuvy-3" value="&lt;font style=&quot;font-size: 12px;&quot;&gt;Yes&lt;br style=&quot;font-size: 12px;&quot;&gt;&lt;/font&gt;" style="text;html=1;strokeColor=none;fillColor=none;align=center;verticalAlign=middle;whiteSpace=wrap;rounded=0;fontFamily=Calibri;fontSize=12;" vertex="1" parent="1">
          <mxGeometry x="319" y="5875" width="60" height="30" as="geometry" />
        </mxCell>
        <mxCell id="-hy4o45iwRQPWopqjuvy-4" value="" style="edgeStyle=orthogonalEdgeStyle;rounded=0;orthogonalLoop=1;jettySize=auto;html=1;fontFamily=Calibri;fontSize=12;" edge="1" parent="1" source="-hy4o45iwRQPWopqjuvy-5" target="-hy4o45iwRQPWopqjuvy-12">
          <mxGeometry relative="1" as="geometry" />
        </mxCell>
        <mxCell id="-hy4o45iwRQPWopqjuvy-5" value="&lt;font style=&quot;font-size: 12px;&quot;&gt;Clear timer_2_OVF_Flag&lt;/font&gt;" style="rounded=0;whiteSpace=wrap;html=1;fillColor=#d5e8d4;strokeColor=#82b366;fontFamily=Calibri;fontSize=12;" vertex="1" parent="1">
          <mxGeometry x="401.5" y="5875" width="170" height="80" as="geometry" />
        </mxCell>
        <mxCell id="-hy4o45iwRQPWopqjuvy-18" value="" style="edgeStyle=orthogonalEdgeStyle;rounded=0;orthogonalLoop=1;jettySize=auto;html=1;" edge="1" parent="1" source="-hy4o45iwRQPWopqjuvy-6" target="-hy4o45iwRQPWopqjuvy-10">
          <mxGeometry relative="1" as="geometry" />
        </mxCell>
        <mxCell id="-hy4o45iwRQPWopqjuvy-6" value="Start" style="rounded=1;whiteSpace=wrap;html=1;arcSize=37;fillColor=#dae8fc;strokeColor=#6c8ebf;fontFamily=Calibri;fontSize=12;" vertex="1" parent="1">
          <mxGeometry x="149" y="5600" width="200" height="40" as="geometry" />
        </mxCell>
        <mxCell id="-hy4o45iwRQPWopqjuvy-8" value="TIMER_TMR2NormalModeInit" style="text;whiteSpace=wrap;html=1;fontFamily=Calibri;fontSize=12;align=center;" vertex="1" parent="1">
          <mxGeometry x="-605" y="5567" width="98" height="22" as="geometry" />
        </mxCell>
        <mxCell id="-hy4o45iwRQPWopqjuvy-9" value="" style="edgeStyle=orthogonalEdgeStyle;rounded=0;orthogonalLoop=1;jettySize=auto;html=1;fontFamily=Calibri;fontSize=12;" edge="1" parent="1" source="-hy4o45iwRQPWopqjuvy-10" target="-hy4o45iwRQPWopqjuvy-2">
          <mxGeometry relative="1" as="geometry" />
        </mxCell>
        <mxCell id="-hy4o45iwRQPWopqjuvy-10" value="&lt;font style=&quot;font-size: 12px;&quot;&gt;Increment the Ticks_OVFs&lt;/font&gt;" style="rounded=0;whiteSpace=wrap;html=1;fillColor=#d5e8d4;strokeColor=#82b366;fontFamily=Calibri;fontSize=12;" vertex="1" parent="1">
          <mxGeometry x="164" y="5696.5" width="170" height="80" as="geometry" />
        </mxCell>
        <mxCell id="-hy4o45iwRQPWopqjuvy-11" value="" style="edgeStyle=orthogonalEdgeStyle;rounded=0;orthogonalLoop=1;jettySize=auto;html=1;fontFamily=Calibri;fontSize=12;" edge="1" parent="1" source="-hy4o45iwRQPWopqjuvy-12">
          <mxGeometry relative="1" as="geometry">
            <mxPoint x="699" y="6030" as="targetPoint" />
          </mxGeometry>
        </mxCell>
        <mxCell id="-hy4o45iwRQPWopqjuvy-12" value="&lt;font style=&quot;font-size: 12px;&quot;&gt;set the timeout flag&lt;/font&gt;" style="rounded=0;whiteSpace=wrap;html=1;fillColor=#d5e8d4;strokeColor=#82b366;fontFamily=Calibri;fontSize=12;" vertex="1" parent="1">
          <mxGeometry x="614.75" y="5875" width="170" height="80" as="geometry" />
        </mxCell>
        <mxCell id="-hy4o45iwRQPWopqjuvy-13" value="&lt;span style=&quot;font-size: 12px;&quot;&gt;End&lt;/span&gt;" style="rounded=1;whiteSpace=wrap;html=1;fillColor=#d5e8d4;strokeColor=#82b366;fontFamily=Calibri;fontSize=12;" vertex="1" parent="1">
          <mxGeometry x="356" y="6043.5" width="146.75" height="57" as="geometry" />
        </mxCell>
        <mxCell id="-hy4o45iwRQPWopqjuvy-14" value="" style="edgeStyle=orthogonalEdgeStyle;rounded=0;orthogonalLoop=1;jettySize=auto;html=1;" edge="1" parent="1" source="-hy4o45iwRQPWopqjuvy-15" target="-hy4o45iwRQPWopqjuvy-13">
          <mxGeometry relative="1" as="geometry" />
        </mxCell>
        <mxCell id="-hy4o45iwRQPWopqjuvy-15" value="&lt;font style=&quot;font-size: 12px;&quot;&gt;TIMER_2_Stop&lt;/font&gt;" style="rounded=0;whiteSpace=wrap;html=1;fillColor=#d5e8d4;strokeColor=#82b366;fontFamily=Calibri;fontSize=12;" vertex="1" parent="1">
          <mxGeometry x="615" y="6033" width="170" height="80" as="geometry" />
        </mxCell>
        <mxCell id="-hy4o45iwRQPWopqjuvy-16" value="" style="endArrow=classic;html=1;rounded=0;exitX=0.5;exitY=1;exitDx=0;exitDy=0;entryX=0;entryY=0.5;entryDx=0;entryDy=0;" edge="1" parent="1" source="-hy4o45iwRQPWopqjuvy-2" target="-hy4o45iwRQPWopqjuvy-13">
          <mxGeometry width="50" height="50" relative="1" as="geometry">
            <mxPoint x="306" y="5909" as="sourcePoint" />
            <mxPoint x="356" y="5859" as="targetPoint" />
            <Array as="points">
              <mxPoint x="249" y="6072" />
            </Array>
          </mxGeometry>
        </mxCell>
        <mxCell id="-hy4o45iwRQPWopqjuvy-17" value="&lt;font style=&quot;font-size: 12px;&quot;&gt;No&lt;br style=&quot;font-size: 12px;&quot;&gt;&lt;/font&gt;" style="text;html=1;strokeColor=none;fillColor=none;align=center;verticalAlign=middle;whiteSpace=wrap;rounded=0;fontFamily=Calibri;fontSize=12;" vertex="1" parent="1">
          <mxGeometry x="192" y="6002" width="60" height="30" as="geometry" />
        </mxCell>
        <mxCell id="-hy4o45iwRQPWopqjuvy-19" value="ISR(TIM2_OVF_INT)" style="text;whiteSpace=wrap;html=1;fontFamily=Calibri;fontSize=12;align=center;" vertex="1" parent="1">
          <mxGeometry x="200" y="5569" width="98" height="22" as="geometry" />
        </mxCell>
        <mxCell id="-hy4o45iwRQPWopqjuvy-38" value="" style="edgeStyle=orthogonalEdgeStyle;rounded=0;orthogonalLoop=1;jettySize=auto;html=1;fontFamily=Calibri;fontSize=12;" edge="1" parent="1" source="-hy4o45iwRQPWopqjuvy-39" target="-hy4o45iwRQPWopqjuvy-42">
          <mxGeometry relative="1" as="geometry" />
        </mxCell>
        <mxCell id="-hy4o45iwRQPWopqjuvy-39" value="" style="rounded=1;whiteSpace=wrap;html=1;arcSize=37;fillColor=#dae8fc;strokeColor=#6c8ebf;fontFamily=Calibri;fontSize=12;" vertex="1" parent="1">
          <mxGeometry x="-642" y="5600" width="171" height="60" as="geometry" />
        </mxCell>
        <mxCell id="-hy4o45iwRQPWopqjuvy-40" value="" style="edgeStyle=orthogonalEdgeStyle;rounded=0;orthogonalLoop=1;jettySize=auto;html=1;fontFamily=Calibri;fontSize=12;" edge="1" parent="1" source="-hy4o45iwRQPWopqjuvy-42">
          <mxGeometry relative="1" as="geometry">
            <mxPoint x="-376" y="5810" as="targetPoint" />
          </mxGeometry>
        </mxCell>
        <mxCell id="-hy4o45iwRQPWopqjuvy-41" value="" style="edgeStyle=orthogonalEdgeStyle;rounded=0;orthogonalLoop=1;jettySize=auto;html=1;entryX=0.5;entryY=0;entryDx=0;entryDy=0;fontFamily=Calibri;fontSize=12;" edge="1" parent="1" source="-hy4o45iwRQPWopqjuvy-42" target="-hy4o45iwRQPWopqjuvy-49">
          <mxGeometry relative="1" as="geometry">
            <mxPoint x="-556" y="5960" as="targetPoint" />
          </mxGeometry>
        </mxCell>
        <mxCell id="-hy4o45iwRQPWopqjuvy-42" value="&lt;font style=&quot;font-size: 12px;&quot;&gt;interrupt&lt;br style=&quot;font-size: 12px;&quot;&gt;Enabled&lt;/font&gt;" style="rhombus;whiteSpace=wrap;html=1;fillColor=#fff2cc;strokeColor=#d6b656;fontFamily=Calibri;fontSize=12;" vertex="1" parent="1">
          <mxGeometry x="-621" y="5740" width="130" height="140" as="geometry" />
        </mxCell>
        <mxCell id="-hy4o45iwRQPWopqjuvy-43" value="&lt;font style=&quot;font-size: 12px;&quot;&gt;&amp;nbsp; &amp;nbsp;Start&lt;span style=&quot;white-space: pre; font-size: 12px;&quot;&gt; &lt;/span&gt;&lt;/font&gt;" style="text;whiteSpace=wrap;html=1;align=center;fontFamily=Calibri;fontSize=12;" vertex="1" parent="1">
          <mxGeometry x="-621" y="5610" width="126" height="40" as="geometry" />
        </mxCell>
        <mxCell id="-hy4o45iwRQPWopqjuvy-44" value="&lt;font style=&quot;font-size: 12px;&quot;&gt;No&lt;/font&gt;" style="text;html=1;strokeColor=none;fillColor=none;align=center;verticalAlign=middle;whiteSpace=wrap;rounded=0;fontFamily=Calibri;fontSize=12;" vertex="1" parent="1">
          <mxGeometry x="-631" y="5910" width="60" height="30" as="geometry" />
        </mxCell>
        <mxCell id="-hy4o45iwRQPWopqjuvy-45" value="&lt;font style=&quot;font-size: 12px;&quot;&gt;Yes&lt;br style=&quot;font-size: 12px;&quot;&gt;&lt;/font&gt;" style="text;html=1;strokeColor=none;fillColor=none;align=center;verticalAlign=middle;whiteSpace=wrap;rounded=0;fontFamily=Calibri;fontSize=12;" vertex="1" parent="1">
          <mxGeometry x="-481" y="5780" width="60" height="30" as="geometry" />
        </mxCell>
        <mxCell id="-hy4o45iwRQPWopqjuvy-46" value="" style="edgeStyle=orthogonalEdgeStyle;rounded=0;orthogonalLoop=1;jettySize=auto;html=1;fontFamily=Calibri;fontSize=12;" edge="1" parent="1" source="-hy4o45iwRQPWopqjuvy-47" target="-hy4o45iwRQPWopqjuvy-51">
          <mxGeometry relative="1" as="geometry">
            <Array as="points">
              <mxPoint x="-145" y="5803" />
              <mxPoint x="-145" y="5803" />
            </Array>
          </mxGeometry>
        </mxCell>
        <mxCell id="-hy4o45iwRQPWopqjuvy-47" value="&lt;font style=&quot;font-size: 12px;&quot;&gt;Set the interrupt global bit&lt;/font&gt;" style="rounded=0;whiteSpace=wrap;html=1;fillColor=#d5e8d4;strokeColor=#82b366;fontFamily=Calibri;fontSize=12;" vertex="1" parent="1">
          <mxGeometry x="-371" y="5740" width="150" height="127" as="geometry" />
        </mxCell>
        <mxCell id="-hy4o45iwRQPWopqjuvy-48" value="" style="edgeStyle=orthogonalEdgeStyle;rounded=0;orthogonalLoop=1;jettySize=auto;html=1;fontFamily=Calibri;fontSize=12;" edge="1" parent="1" source="-hy4o45iwRQPWopqjuvy-49">
          <mxGeometry relative="1" as="geometry">
            <mxPoint x="-556" y="6180" as="targetPoint" />
          </mxGeometry>
        </mxCell>
        <mxCell id="-hy4o45iwRQPWopqjuvy-49" value="&lt;font style=&quot;font-size: 12px;&quot;&gt;Set the normal mode configurations&lt;/font&gt;" style="rounded=0;whiteSpace=wrap;html=1;fillColor=#d5e8d4;strokeColor=#82b366;fontFamily=Calibri;fontSize=12;" vertex="1" parent="1">
          <mxGeometry x="-631" y="6000" width="150" height="75" as="geometry" />
        </mxCell>
        <mxCell id="-hy4o45iwRQPWopqjuvy-50" value="" style="edgeStyle=orthogonalEdgeStyle;rounded=0;orthogonalLoop=1;jettySize=auto;html=1;fontFamily=Calibri;fontSize=12;" edge="1" parent="1" source="-hy4o45iwRQPWopqjuvy-51" target="-hy4o45iwRQPWopqjuvy-49">
          <mxGeometry relative="1" as="geometry">
            <mxPoint x="-441" y="6060" as="targetPoint" />
            <Array as="points">
              <mxPoint x="-51" y="6060" />
            </Array>
          </mxGeometry>
        </mxCell>
        <mxCell id="-hy4o45iwRQPWopqjuvy-51" value="&lt;font style=&quot;font-size: 12px;&quot;&gt;Enable the interrupt bit for timer overflow&lt;/font&gt;" style="whiteSpace=wrap;html=1;fillColor=#d5e8d4;strokeColor=#82b366;rounded=0;fontFamily=Calibri;fontSize=12;" vertex="1" parent="1">
          <mxGeometry x="-130" y="5753" width="176" height="104" as="geometry" />
        </mxCell>
        <mxCell id="-hy4o45iwRQPWopqjuvy-52" value="&lt;font style=&quot;font-size: 12px;&quot;&gt;Return &lt;br style=&quot;font-size: 12px;&quot;&gt;TIMER_OK&lt;/font&gt;" style="rounded=1;whiteSpace=wrap;html=1;fillColor=#d5e8d4;strokeColor=#82b366;fontFamily=Calibri;fontSize=12;" vertex="1" parent="1">
          <mxGeometry x="-638" y="6182" width="177" height="75" as="geometry" />
        </mxCell>
        <mxCell id="-hy4o45iwRQPWopqjuvy-53" value="" style="edgeStyle=orthogonalEdgeStyle;rounded=0;orthogonalLoop=1;jettySize=auto;html=1;fontFamily=Calibri;fontSize=12;" edge="1" parent="1" source="-hy4o45iwRQPWopqjuvy-54" target="-hy4o45iwRQPWopqjuvy-57">
          <mxGeometry relative="1" as="geometry" />
        </mxCell>
        <mxCell id="-hy4o45iwRQPWopqjuvy-54" value="Start" style="rounded=1;whiteSpace=wrap;html=1;arcSize=37;fillColor=#dae8fc;strokeColor=#6c8ebf;fontFamily=Calibri;fontSize=12;" vertex="1" parent="1">
          <mxGeometry x="-621" y="6392" width="200" height="40" as="geometry" />
        </mxCell>
        <mxCell id="-hy4o45iwRQPWopqjuvy-55" value="" style="edgeStyle=orthogonalEdgeStyle;rounded=0;orthogonalLoop=1;jettySize=auto;html=1;fontFamily=Calibri;fontSize=12;" edge="1" parent="1" source="-hy4o45iwRQPWopqjuvy-57">
          <mxGeometry relative="1" as="geometry">
            <mxPoint x="-331" y="6587" as="targetPoint" />
          </mxGeometry>
        </mxCell>
        <mxCell id="-hy4o45iwRQPWopqjuvy-56" value="" style="edgeStyle=orthogonalEdgeStyle;rounded=0;orthogonalLoop=1;jettySize=auto;html=1;fontFamily=Calibri;fontSize=12;" edge="1" parent="1" source="-hy4o45iwRQPWopqjuvy-57" target="-hy4o45iwRQPWopqjuvy-65">
          <mxGeometry relative="1" as="geometry" />
        </mxCell>
        <mxCell id="-hy4o45iwRQPWopqjuvy-57" value="&lt;span style=&quot;font-size: 12px;&quot;&gt;delay == MAX_DELAY&lt;/span&gt;" style="rhombus;whiteSpace=wrap;html=1;fillColor=#fff2cc;strokeColor=#d6b656;fontFamily=Calibri;fontSize=12;" vertex="1" parent="1">
          <mxGeometry x="-621" y="6512" width="200" height="150" as="geometry" />
        </mxCell>
        <mxCell id="-hy4o45iwRQPWopqjuvy-58" value="&lt;font style=&quot;font-size: 12px;&quot;&gt;TMR_delay_ms&lt;/font&gt;" style="text;whiteSpace=wrap;html=1;fontFamily=Calibri;fontSize=12;align=center;" vertex="1" parent="1">
          <mxGeometry x="-606" y="6355" width="172" height="40" as="geometry" />
        </mxCell>
        <mxCell id="-hy4o45iwRQPWopqjuvy-59" value="&lt;font style=&quot;font-size: 12px;&quot;&gt;No&lt;/font&gt;" style="text;html=1;strokeColor=none;fillColor=none;align=center;verticalAlign=middle;whiteSpace=wrap;rounded=0;fontFamily=Calibri;fontSize=12;" vertex="1" parent="1">
          <mxGeometry x="-583" y="6682" width="60" height="30" as="geometry" />
        </mxCell>
        <mxCell id="-hy4o45iwRQPWopqjuvy-60" value="&lt;font style=&quot;font-size: 12px;&quot;&gt;Yes&lt;br style=&quot;font-size: 12px;&quot;&gt;&lt;/font&gt;" style="text;html=1;strokeColor=none;fillColor=none;align=center;verticalAlign=middle;whiteSpace=wrap;rounded=0;fontFamily=Calibri;fontSize=12;" vertex="1" parent="1">
          <mxGeometry x="-433" y="6552" width="60" height="30" as="geometry" />
        </mxCell>
        <mxCell id="-hy4o45iwRQPWopqjuvy-61" value="" style="edgeStyle=orthogonalEdgeStyle;rounded=0;orthogonalLoop=1;jettySize=auto;html=1;fontFamily=Calibri;fontSize=12;" edge="1" parent="1" source="-hy4o45iwRQPWopqjuvy-62">
          <mxGeometry relative="1" as="geometry">
            <mxPoint x="-186" y="7252" as="targetPoint" />
          </mxGeometry>
        </mxCell>
        <mxCell id="-hy4o45iwRQPWopqjuvy-62" value="&lt;font style=&quot;font-size: 12px;&quot;&gt;Start the Timer_2&lt;/font&gt;" style="rounded=0;whiteSpace=wrap;html=1;fillColor=#d5e8d4;strokeColor=#82b366;fontFamily=Calibri;fontSize=12;" vertex="1" parent="1">
          <mxGeometry x="-261" y="7117" width="150" height="80" as="geometry" />
        </mxCell>
        <mxCell id="-hy4o45iwRQPWopqjuvy-63" value="" style="edgeStyle=orthogonalEdgeStyle;rounded=0;orthogonalLoop=1;jettySize=auto;html=1;fontFamily=Calibri;fontSize=12;" edge="1" parent="1" source="-hy4o45iwRQPWopqjuvy-65" target="-hy4o45iwRQPWopqjuvy-70">
          <mxGeometry relative="1" as="geometry" />
        </mxCell>
        <mxCell id="-hy4o45iwRQPWopqjuvy-64" value="" style="edgeStyle=orthogonalEdgeStyle;rounded=0;orthogonalLoop=1;jettySize=auto;html=1;fontFamily=Calibri;fontSize=12;" edge="1" parent="1" source="-hy4o45iwRQPWopqjuvy-65" target="-hy4o45iwRQPWopqjuvy-73">
          <mxGeometry relative="1" as="geometry">
            <mxPoint x="-521" y="6922" as="targetPoint" />
          </mxGeometry>
        </mxCell>
        <mxCell id="-hy4o45iwRQPWopqjuvy-65" value="&lt;span style=&quot;font-size: 12px;&quot;&gt;delay &amp;lt; MAX_DELAY&lt;/span&gt;" style="rhombus;whiteSpace=wrap;html=1;fillColor=#fff2cc;strokeColor=#d6b656;fontFamily=Calibri;fontSize=12;" vertex="1" parent="1">
          <mxGeometry x="-621" y="6722" width="200" height="150" as="geometry" />
        </mxCell>
        <mxCell id="-hy4o45iwRQPWopqjuvy-66" value="" style="edgeStyle=orthogonalEdgeStyle;rounded=0;orthogonalLoop=1;jettySize=auto;html=1;fontFamily=Calibri;fontSize=12;" edge="1" parent="1" source="-hy4o45iwRQPWopqjuvy-67" target="-hy4o45iwRQPWopqjuvy-68">
          <mxGeometry relative="1" as="geometry" />
        </mxCell>
        <mxCell id="-hy4o45iwRQPWopqjuvy-67" value="&lt;font style=&quot;font-size: 12px;&quot;&gt;Calculate the timer/counter register value&lt;/font&gt;" style="rounded=0;whiteSpace=wrap;html=1;fillColor=#d5e8d4;strokeColor=#82b366;fontFamily=Calibri;fontSize=12;" vertex="1" parent="1">
          <mxGeometry x="-331" y="6552" width="150" height="75" as="geometry" />
        </mxCell>
        <mxCell id="-hy4o45iwRQPWopqjuvy-68" value="&lt;font style=&quot;font-size: 12px;&quot;&gt;Set the number of overflows = 1&lt;/font&gt;" style="rounded=0;whiteSpace=wrap;html=1;fillColor=#d5e8d4;strokeColor=#82b366;fontFamily=Calibri;fontSize=12;" vertex="1" parent="1">
          <mxGeometry x="-151" y="6552" width="150" height="75" as="geometry" />
        </mxCell>
        <mxCell id="-hy4o45iwRQPWopqjuvy-69" value="" style="edgeStyle=orthogonalEdgeStyle;rounded=0;orthogonalLoop=1;jettySize=auto;html=1;fontFamily=Calibri;fontSize=12;" edge="1" parent="1" source="-hy4o45iwRQPWopqjuvy-70" target="-hy4o45iwRQPWopqjuvy-71">
          <mxGeometry relative="1" as="geometry" />
        </mxCell>
        <mxCell id="-hy4o45iwRQPWopqjuvy-70" value="&lt;font style=&quot;font-size: 12px;&quot;&gt;Set timer/counter register = 0x00&lt;/font&gt;" style="rounded=0;whiteSpace=wrap;html=1;fillColor=#d5e8d4;strokeColor=#82b366;fontFamily=Calibri;fontSize=12;" vertex="1" parent="1">
          <mxGeometry x="-321" y="6759.5" width="150" height="75" as="geometry" />
        </mxCell>
        <mxCell id="-hy4o45iwRQPWopqjuvy-71" value="&lt;font style=&quot;font-size: 12px;&quot;&gt;Set the number of overflows = 1&lt;/font&gt;" style="rounded=0;whiteSpace=wrap;html=1;fillColor=#d5e8d4;strokeColor=#82b366;fontFamily=Calibri;fontSize=12;" vertex="1" parent="1">
          <mxGeometry x="-141" y="6759.5" width="150" height="75" as="geometry" />
        </mxCell>
        <mxCell id="-hy4o45iwRQPWopqjuvy-72" value="" style="edgeStyle=orthogonalEdgeStyle;rounded=0;orthogonalLoop=1;jettySize=auto;html=1;fontFamily=Calibri;fontSize=12;" edge="1" parent="1" source="-hy4o45iwRQPWopqjuvy-73" target="-hy4o45iwRQPWopqjuvy-75">
          <mxGeometry relative="1" as="geometry" />
        </mxCell>
        <mxCell id="-hy4o45iwRQPWopqjuvy-73" value="&lt;font style=&quot;font-size: 12px;&quot;&gt;Calculate the timer/counter register value&lt;/font&gt;" style="rounded=0;whiteSpace=wrap;html=1;fillColor=#d5e8d4;strokeColor=#82b366;fontFamily=Calibri;fontSize=12;" vertex="1" parent="1">
          <mxGeometry x="-596" y="6942" width="150" height="110" as="geometry" />
        </mxCell>
        <mxCell id="-hy4o45iwRQPWopqjuvy-74" value="" style="edgeStyle=orthogonalEdgeStyle;rounded=0;orthogonalLoop=1;jettySize=auto;html=1;fontFamily=Calibri;fontSize=12;" edge="1" parent="1" source="-hy4o45iwRQPWopqjuvy-75">
          <mxGeometry relative="1" as="geometry">
            <mxPoint x="-261" y="7157" as="targetPoint" />
          </mxGeometry>
        </mxCell>
        <mxCell id="-hy4o45iwRQPWopqjuvy-75" value="&lt;font style=&quot;font-size: 12px;&quot;&gt;&amp;nbsp;Number of overflows = delay / MAX_DELAY&lt;/font&gt;" style="rounded=0;whiteSpace=wrap;html=1;fillColor=#d5e8d4;strokeColor=#82b366;fontFamily=Calibri;fontSize=12;" vertex="1" parent="1">
          <mxGeometry x="-606" y="7102" width="170" height="110" as="geometry" />
        </mxCell>
        <mxCell id="-hy4o45iwRQPWopqjuvy-76" value="&lt;font style=&quot;font-size: 12px;&quot;&gt;No&lt;/font&gt;" style="text;html=1;strokeColor=none;fillColor=none;align=center;verticalAlign=middle;whiteSpace=wrap;rounded=0;fontFamily=Calibri;fontSize=12;" vertex="1" parent="1">
          <mxGeometry x="-583" y="6892" width="60" height="30" as="geometry" />
        </mxCell>
        <mxCell id="-hy4o45iwRQPWopqjuvy-77" value="&lt;font style=&quot;font-size: 12px;&quot;&gt;Yes&lt;br style=&quot;font-size: 12px;&quot;&gt;&lt;/font&gt;" style="text;html=1;strokeColor=none;fillColor=none;align=center;verticalAlign=middle;whiteSpace=wrap;rounded=0;fontFamily=Calibri;fontSize=12;" vertex="1" parent="1">
          <mxGeometry x="-421" y="6752" width="60" height="30" as="geometry" />
        </mxCell>
        <mxCell id="-hy4o45iwRQPWopqjuvy-78" value="" style="endArrow=none;html=1;rounded=0;entryX=1.012;entryY=0.608;entryDx=0;entryDy=0;entryPerimeter=0;fontFamily=Calibri;fontSize=12;" edge="1" parent="1" target="-hy4o45iwRQPWopqjuvy-68">
          <mxGeometry width="50" height="50" relative="1" as="geometry">
            <mxPoint x="89" y="7182" as="sourcePoint" />
            <mxPoint x="99" y="6852" as="targetPoint" />
            <Array as="points">
              <mxPoint x="89" y="6598" />
            </Array>
          </mxGeometry>
        </mxCell>
        <mxCell id="-hy4o45iwRQPWopqjuvy-79" value="" style="endArrow=none;html=1;rounded=0;fontFamily=Calibri;fontSize=12;" edge="1" parent="1">
          <mxGeometry width="50" height="50" relative="1" as="geometry">
            <mxPoint x="57" y="7152" as="sourcePoint" />
            <mxPoint x="9" y="6802" as="targetPoint" />
            <Array as="points">
              <mxPoint x="57" y="6802" />
            </Array>
          </mxGeometry>
        </mxCell>
        <mxCell id="-hy4o45iwRQPWopqjuvy-80" value="" style="endArrow=classic;html=1;rounded=0;entryX=1;entryY=0.438;entryDx=0;entryDy=0;entryPerimeter=0;fontFamily=Calibri;fontSize=12;" edge="1" parent="1" target="-hy4o45iwRQPWopqjuvy-62">
          <mxGeometry width="50" height="50" relative="1" as="geometry">
            <mxPoint x="59" y="7152" as="sourcePoint" />
            <mxPoint x="-101" y="7152" as="targetPoint" />
          </mxGeometry>
        </mxCell>
        <mxCell id="-hy4o45iwRQPWopqjuvy-81" value="" style="endArrow=classic;html=1;rounded=0;entryX=1;entryY=0.438;entryDx=0;entryDy=0;entryPerimeter=0;fontFamily=Calibri;fontSize=12;" edge="1" parent="1">
          <mxGeometry width="50" height="50" relative="1" as="geometry">
            <mxPoint x="89" y="7182" as="sourcePoint" />
            <mxPoint x="-111" y="7182" as="targetPoint" />
          </mxGeometry>
        </mxCell>
        <mxCell id="-hy4o45iwRQPWopqjuvy-82" value="&lt;font style=&quot;font-size: 12px;&quot;&gt;Return &lt;br style=&quot;font-size: 12px;&quot;&gt;TIMER_OK&lt;/font&gt;" style="rounded=1;whiteSpace=wrap;html=1;fillColor=#d5e8d4;strokeColor=#82b366;fontFamily=Calibri;fontSize=12;" vertex="1" parent="1">
          <mxGeometry x="-246" y="7252" width="120" height="48" as="geometry" />
        </mxCell>
        <mxCell id="-hy4o45iwRQPWopqjuvy-83" value="" style="edgeStyle=orthogonalEdgeStyle;rounded=0;orthogonalLoop=1;jettySize=auto;html=1;fontFamily=Calibri;fontSize=12;" edge="1" parent="1" source="-hy4o45iwRQPWopqjuvy-84" target="-hy4o45iwRQPWopqjuvy-87">
          <mxGeometry relative="1" as="geometry" />
        </mxCell>
        <mxCell id="-hy4o45iwRQPWopqjuvy-84" value="Start" style="rounded=1;whiteSpace=wrap;html=1;arcSize=37;fillColor=#dae8fc;strokeColor=#6c8ebf;fontFamily=Calibri;fontSize=12;" vertex="1" parent="1">
          <mxGeometry x="333" y="6411" width="200" height="40" as="geometry" />
        </mxCell>
        <mxCell id="-hy4o45iwRQPWopqjuvy-85" value="" style="edgeStyle=orthogonalEdgeStyle;rounded=0;orthogonalLoop=1;jettySize=auto;html=1;fontFamily=Calibri;fontSize=12;" edge="1" parent="1" source="-hy4o45iwRQPWopqjuvy-87" target="-hy4o45iwRQPWopqjuvy-91">
          <mxGeometry relative="1" as="geometry" />
        </mxCell>
        <mxCell id="-hy4o45iwRQPWopqjuvy-86" value="" style="edgeStyle=orthogonalEdgeStyle;rounded=0;orthogonalLoop=1;jettySize=auto;html=1;fontFamily=Calibri;fontSize=12;" edge="1" parent="1" source="-hy4o45iwRQPWopqjuvy-87" target="-hy4o45iwRQPWopqjuvy-115">
          <mxGeometry relative="1" as="geometry" />
        </mxCell>
        <mxCell id="-hy4o45iwRQPWopqjuvy-87" value="&lt;span style=&quot;font-size: 12px;&quot;&gt;Prescaler == 1&lt;/span&gt;" style="rhombus;whiteSpace=wrap;html=1;fillColor=#fff2cc;strokeColor=#d6b656;fontFamily=Calibri;fontSize=12;" vertex="1" parent="1">
          <mxGeometry x="378" y="6506" width="110" height="140" as="geometry" />
        </mxCell>
        <mxCell id="-hy4o45iwRQPWopqjuvy-88" value="&lt;font style=&quot;font-size: 12px;&quot;&gt;TMR_tmr2Start&lt;/font&gt;" style="text;whiteSpace=wrap;html=1;fontFamily=Calibri;fontSize=12;" vertex="1" parent="1">
          <mxGeometry x="395" y="6371" width="172" height="40" as="geometry" />
        </mxCell>
        <mxCell id="-hy4o45iwRQPWopqjuvy-89" value="" style="edgeStyle=orthogonalEdgeStyle;rounded=0;orthogonalLoop=1;jettySize=auto;html=1;fontFamily=Calibri;fontSize=12;" edge="1" parent="1" source="-hy4o45iwRQPWopqjuvy-91" target="-hy4o45iwRQPWopqjuvy-94">
          <mxGeometry relative="1" as="geometry" />
        </mxCell>
        <mxCell id="-hy4o45iwRQPWopqjuvy-90" value="" style="edgeStyle=orthogonalEdgeStyle;rounded=0;orthogonalLoop=1;jettySize=auto;html=1;fontFamily=Calibri;fontSize=12;" edge="1" parent="1" source="-hy4o45iwRQPWopqjuvy-91" target="-hy4o45iwRQPWopqjuvy-122">
          <mxGeometry relative="1" as="geometry" />
        </mxCell>
        <mxCell id="-hy4o45iwRQPWopqjuvy-91" value="&lt;span style=&quot;font-size: 12px;&quot;&gt;Prescaler == 8&lt;/span&gt;" style="rhombus;whiteSpace=wrap;html=1;fillColor=#fff2cc;strokeColor=#d6b656;fontFamily=Calibri;fontSize=12;" vertex="1" parent="1">
          <mxGeometry x="377" y="6703.5" width="110" height="140" as="geometry" />
        </mxCell>
        <mxCell id="-hy4o45iwRQPWopqjuvy-92" value="" style="edgeStyle=orthogonalEdgeStyle;rounded=0;orthogonalLoop=1;jettySize=auto;html=1;fontFamily=Calibri;fontSize=12;" edge="1" parent="1" source="-hy4o45iwRQPWopqjuvy-94" target="-hy4o45iwRQPWopqjuvy-97">
          <mxGeometry relative="1" as="geometry" />
        </mxCell>
        <mxCell id="-hy4o45iwRQPWopqjuvy-93" value="" style="edgeStyle=orthogonalEdgeStyle;rounded=0;orthogonalLoop=1;jettySize=auto;html=1;fontFamily=Calibri;fontSize=12;" edge="1" parent="1" source="-hy4o45iwRQPWopqjuvy-94" target="-hy4o45iwRQPWopqjuvy-121">
          <mxGeometry relative="1" as="geometry" />
        </mxCell>
        <mxCell id="-hy4o45iwRQPWopqjuvy-94" value="&lt;span style=&quot;font-size: 12px;&quot;&gt;Prescaler == 32&lt;/span&gt;" style="rhombus;whiteSpace=wrap;html=1;fillColor=#fff2cc;strokeColor=#d6b656;fontFamily=Calibri;fontSize=12;" vertex="1" parent="1">
          <mxGeometry x="377" y="6892.5" width="110" height="140" as="geometry" />
        </mxCell>
        <mxCell id="-hy4o45iwRQPWopqjuvy-96" value="" style="edgeStyle=orthogonalEdgeStyle;rounded=0;orthogonalLoop=1;jettySize=auto;html=1;fontFamily=Calibri;fontSize=12;" edge="1" parent="1" source="-hy4o45iwRQPWopqjuvy-97" target="-hy4o45iwRQPWopqjuvy-120">
          <mxGeometry relative="1" as="geometry" />
        </mxCell>
        <mxCell id="-hy4o45iwRQPWopqjuvy-97" value="&lt;span style=&quot;font-size: 12px;&quot;&gt;Prescaler == 64&lt;/span&gt;" style="rhombus;whiteSpace=wrap;html=1;fillColor=#fff2cc;strokeColor=#d6b656;fontFamily=Calibri;fontSize=12;" vertex="1" parent="1">
          <mxGeometry x="378" y="7092.5" width="110" height="140" as="geometry" />
        </mxCell>
        <mxCell id="-hy4o45iwRQPWopqjuvy-98" value="" style="edgeStyle=orthogonalEdgeStyle;rounded=0;orthogonalLoop=1;jettySize=auto;html=1;fontFamily=Calibri;fontSize=12;" edge="1" parent="1" source="-hy4o45iwRQPWopqjuvy-100" target="-hy4o45iwRQPWopqjuvy-103">
          <mxGeometry relative="1" as="geometry" />
        </mxCell>
        <mxCell id="-hy4o45iwRQPWopqjuvy-99" value="" style="edgeStyle=orthogonalEdgeStyle;rounded=0;orthogonalLoop=1;jettySize=auto;html=1;fontFamily=Calibri;fontSize=12;" edge="1" parent="1" source="-hy4o45iwRQPWopqjuvy-100" target="-hy4o45iwRQPWopqjuvy-118">
          <mxGeometry relative="1" as="geometry" />
        </mxCell>
        <mxCell id="-hy4o45iwRQPWopqjuvy-100" value="&lt;span style=&quot;font-size: 12px;&quot;&gt;Prescaler == 128&lt;/span&gt;" style="rhombus;whiteSpace=wrap;html=1;fillColor=#fff2cc;strokeColor=#d6b656;fontFamily=Calibri;fontSize=12;" vertex="1" parent="1">
          <mxGeometry x="1098" y="6584" width="110" height="140" as="geometry" />
        </mxCell>
        <mxCell id="-hy4o45iwRQPWopqjuvy-101" value="" style="edgeStyle=orthogonalEdgeStyle;rounded=0;orthogonalLoop=1;jettySize=auto;html=1;fontFamily=Calibri;fontSize=12;" edge="1" parent="1" source="-hy4o45iwRQPWopqjuvy-103" target="-hy4o45iwRQPWopqjuvy-106">
          <mxGeometry relative="1" as="geometry" />
        </mxCell>
        <mxCell id="-hy4o45iwRQPWopqjuvy-102" value="" style="edgeStyle=orthogonalEdgeStyle;rounded=0;orthogonalLoop=1;jettySize=auto;html=1;fontFamily=Calibri;fontSize=12;" edge="1" parent="1" source="-hy4o45iwRQPWopqjuvy-103" target="-hy4o45iwRQPWopqjuvy-117">
          <mxGeometry relative="1" as="geometry" />
        </mxCell>
        <mxCell id="-hy4o45iwRQPWopqjuvy-103" value="&lt;span style=&quot;font-size: 12px;&quot;&gt;Prescaler == 256&lt;/span&gt;" style="rhombus;whiteSpace=wrap;html=1;fillColor=#fff2cc;strokeColor=#d6b656;fontFamily=Calibri;fontSize=12;" vertex="1" parent="1">
          <mxGeometry x="1098" y="6773" width="110" height="140" as="geometry" />
        </mxCell>
        <mxCell id="-hy4o45iwRQPWopqjuvy-104" value="" style="edgeStyle=orthogonalEdgeStyle;rounded=0;orthogonalLoop=1;jettySize=auto;html=1;fontFamily=Calibri;fontSize=12;" edge="1" parent="1" source="-hy4o45iwRQPWopqjuvy-106" target="-hy4o45iwRQPWopqjuvy-116">
          <mxGeometry relative="1" as="geometry" />
        </mxCell>
        <mxCell id="-hy4o45iwRQPWopqjuvy-105" value="" style="edgeStyle=orthogonalEdgeStyle;rounded=0;orthogonalLoop=1;jettySize=auto;html=1;fontFamily=Calibri;fontSize=12;" edge="1" parent="1" source="-hy4o45iwRQPWopqjuvy-106">
          <mxGeometry relative="1" as="geometry">
            <mxPoint x="1155" y="7239.62" as="targetPoint" />
          </mxGeometry>
        </mxCell>
        <mxCell id="-hy4o45iwRQPWopqjuvy-106" value="&lt;span style=&quot;font-size: 12px;&quot;&gt;Prescaler == 1024&lt;/span&gt;" style="rhombus;whiteSpace=wrap;html=1;fillColor=#fff2cc;strokeColor=#d6b656;fontFamily=Calibri;fontSize=12;" vertex="1" parent="1">
          <mxGeometry x="1099" y="6973" width="110" height="140" as="geometry" />
        </mxCell>
        <mxCell id="-hy4o45iwRQPWopqjuvy-107" value="&lt;font style=&quot;font-size: 12px;&quot;&gt;No&lt;/font&gt;" style="text;html=1;strokeColor=none;fillColor=none;align=center;verticalAlign=middle;whiteSpace=wrap;rounded=0;fontFamily=Calibri;fontSize=12;" vertex="1" parent="1">
          <mxGeometry x="369" y="6657" width="60" height="30" as="geometry" />
        </mxCell>
        <mxCell id="-hy4o45iwRQPWopqjuvy-108" value="&lt;font style=&quot;font-size: 12px;&quot;&gt;Yes&lt;br style=&quot;font-size: 12px;&quot;&gt;&lt;/font&gt;" style="text;html=1;strokeColor=none;fillColor=none;align=center;verticalAlign=middle;whiteSpace=wrap;rounded=0;fontFamily=Calibri;fontSize=12;" vertex="1" parent="1">
          <mxGeometry x="494" y="6538.5" width="60" height="30" as="geometry" />
        </mxCell>
        <mxCell id="-hy4o45iwRQPWopqjuvy-109" value="&lt;font style=&quot;font-size: 12px;&quot;&gt;No&lt;/font&gt;" style="text;html=1;strokeColor=none;fillColor=none;align=center;verticalAlign=middle;whiteSpace=wrap;rounded=0;fontFamily=Calibri;fontSize=12;" vertex="1" parent="1">
          <mxGeometry x="374" y="6849" width="60" height="30" as="geometry" />
        </mxCell>
        <mxCell id="-hy4o45iwRQPWopqjuvy-110" value="&lt;font style=&quot;font-size: 12px;&quot;&gt;No&lt;/font&gt;" style="text;html=1;strokeColor=none;fillColor=none;align=center;verticalAlign=middle;whiteSpace=wrap;rounded=0;fontFamily=Calibri;fontSize=12;" vertex="1" parent="1">
          <mxGeometry x="364" y="7052.5" width="60" height="30" as="geometry" />
        </mxCell>
        <mxCell id="-hy4o45iwRQPWopqjuvy-111" value="&lt;font style=&quot;font-size: 12px;&quot;&gt;No&lt;/font&gt;" style="text;html=1;strokeColor=none;fillColor=none;align=center;verticalAlign=middle;whiteSpace=wrap;rounded=0;fontFamily=Calibri;fontSize=12;" vertex="1" parent="1">
          <mxGeometry x="369" y="7241.5" width="60" height="30" as="geometry" />
        </mxCell>
        <mxCell id="-hy4o45iwRQPWopqjuvy-112" value="&lt;font style=&quot;font-size: 12px;&quot;&gt;No&lt;/font&gt;" style="text;html=1;strokeColor=none;fillColor=none;align=center;verticalAlign=middle;whiteSpace=wrap;rounded=0;fontFamily=Calibri;fontSize=12;" vertex="1" parent="1">
          <mxGeometry x="1094" y="6734.62" width="60" height="30" as="geometry" />
        </mxCell>
        <mxCell id="-hy4o45iwRQPWopqjuvy-113" value="&lt;font style=&quot;font-size: 12px;&quot;&gt;No&lt;/font&gt;" style="text;html=1;strokeColor=none;fillColor=none;align=center;verticalAlign=middle;whiteSpace=wrap;rounded=0;fontFamily=Calibri;fontSize=12;" vertex="1" parent="1">
          <mxGeometry x="1089" y="6923.12" width="60" height="30" as="geometry" />
        </mxCell>
        <mxCell id="-hy4o45iwRQPWopqjuvy-114" value="&lt;font style=&quot;font-size: 12px;&quot;&gt;No&lt;/font&gt;" style="text;html=1;strokeColor=none;fillColor=none;align=center;verticalAlign=middle;whiteSpace=wrap;rounded=0;fontFamily=Calibri;fontSize=12;" vertex="1" parent="1">
          <mxGeometry x="1084" y="7113" width="60" height="30" as="geometry" />
        </mxCell>
        <mxCell id="-hy4o45iwRQPWopqjuvy-115" value="Set the equivalent bits on TCCR2" style="rounded=0;whiteSpace=wrap;html=1;fillColor=#d5e8d4;strokeColor=#82b366;fontFamily=Calibri;fontSize=12;" vertex="1" parent="1">
          <mxGeometry x="579" y="6538.5" width="150" height="75" as="geometry" />
        </mxCell>
        <mxCell id="-hy4o45iwRQPWopqjuvy-116" value="Set the equivalent bits on TCCR2" style="rounded=0;whiteSpace=wrap;html=1;fillColor=#d5e8d4;strokeColor=#82b366;fontFamily=Calibri;fontSize=12;" vertex="1" parent="1">
          <mxGeometry x="1309" y="7005.5" width="150" height="75" as="geometry" />
        </mxCell>
        <mxCell id="-hy4o45iwRQPWopqjuvy-117" value="Set the equivalent bits on TCCR2" style="rounded=0;whiteSpace=wrap;html=1;fillColor=#d5e8d4;strokeColor=#82b366;fontFamily=Calibri;fontSize=12;" vertex="1" parent="1">
          <mxGeometry x="1309" y="6805.5" width="150" height="75" as="geometry" />
        </mxCell>
        <mxCell id="-hy4o45iwRQPWopqjuvy-118" value="&lt;font style=&quot;font-size: 12px;&quot;&gt;Set the equivalent bits on TCCR2&lt;/font&gt;" style="rounded=0;whiteSpace=wrap;html=1;fillColor=#d5e8d4;strokeColor=#82b366;fontFamily=Calibri;fontSize=12;" vertex="1" parent="1">
          <mxGeometry x="1304" y="6616.5" width="150" height="75" as="geometry" />
        </mxCell>
        <mxCell id="-hy4o45iwRQPWopqjuvy-119" value="" style="edgeStyle=orthogonalEdgeStyle;rounded=0;orthogonalLoop=1;jettySize=auto;html=1;fontFamily=Calibri;fontSize=12;" edge="1" parent="1" source="-hy4o45iwRQPWopqjuvy-120">
          <mxGeometry relative="1" as="geometry">
            <mxPoint x="907" y="6972" as="targetPoint" />
          </mxGeometry>
        </mxCell>
        <mxCell id="-hy4o45iwRQPWopqjuvy-120" value="Set the equivalent bits on TCCR2" style="rounded=0;whiteSpace=wrap;html=1;fillColor=#d5e8d4;strokeColor=#82b366;fontFamily=Calibri;fontSize=12;" vertex="1" parent="1">
          <mxGeometry x="589" y="7125" width="150" height="75" as="geometry" />
        </mxCell>
        <mxCell id="-hy4o45iwRQPWopqjuvy-121" value="Set the equivalent bits on TCCR2" style="rounded=0;whiteSpace=wrap;html=1;fillColor=#d5e8d4;strokeColor=#82b366;fontFamily=Calibri;fontSize=12;" vertex="1" parent="1">
          <mxGeometry x="579" y="6925" width="150" height="75" as="geometry" />
        </mxCell>
        <mxCell id="-hy4o45iwRQPWopqjuvy-122" value="Set the equivalent bits on TCCR2" style="rounded=0;whiteSpace=wrap;html=1;fillColor=#d5e8d4;strokeColor=#82b366;fontFamily=Calibri;fontSize=12;" vertex="1" parent="1">
          <mxGeometry x="579" y="6736" width="150" height="75" as="geometry" />
        </mxCell>
        <mxCell id="-hy4o45iwRQPWopqjuvy-123" value="" style="endArrow=none;html=1;rounded=0;entryX=1;entryY=0.5;entryDx=0;entryDy=0;fontFamily=Calibri;fontSize=12;" edge="1" parent="1" target="-hy4o45iwRQPWopqjuvy-115">
          <mxGeometry width="50" height="50" relative="1" as="geometry">
            <mxPoint x="1623" y="7265" as="sourcePoint" />
            <mxPoint x="766" y="6716.67" as="targetPoint" />
            <Array as="points">
              <mxPoint x="1629" y="6576" />
              <mxPoint x="904" y="6573" />
            </Array>
          </mxGeometry>
        </mxCell>
        <mxCell id="-hy4o45iwRQPWopqjuvy-124" value="" style="endArrow=classic;html=1;rounded=0;entryX=1;entryY=0.438;entryDx=0;entryDy=0;entryPerimeter=0;fontFamily=Calibri;fontSize=12;" edge="1" parent="1">
          <mxGeometry width="50" height="50" relative="1" as="geometry">
            <mxPoint x="1624" y="7268.62" as="sourcePoint" />
            <mxPoint x="1454" y="7269.079999999999" as="targetPoint" />
            <Array as="points" />
          </mxGeometry>
        </mxCell>
        <mxCell id="-hy4o45iwRQPWopqjuvy-125" value="" style="edgeStyle=orthogonalEdgeStyle;rounded=0;orthogonalLoop=1;jettySize=auto;html=1;exitX=1.009;exitY=0.649;exitDx=0;exitDy=0;exitPerimeter=0;fontFamily=Calibri;fontSize=12;" edge="1" parent="1" source="-hy4o45iwRQPWopqjuvy-121">
          <mxGeometry relative="1" as="geometry">
            <mxPoint x="736.5" y="6973.58" as="sourcePoint" />
            <mxPoint x="909" y="6780" as="targetPoint" />
          </mxGeometry>
        </mxCell>
        <mxCell id="-hy4o45iwRQPWopqjuvy-126" value="" style="edgeStyle=orthogonalEdgeStyle;rounded=0;orthogonalLoop=1;jettySize=auto;html=1;fontFamily=Calibri;fontSize=12;" edge="1" parent="1">
          <mxGeometry relative="1" as="geometry">
            <mxPoint x="1459" y="7054.12" as="sourcePoint" />
            <mxPoint x="1624" y="7054.12" as="targetPoint" />
          </mxGeometry>
        </mxCell>
        <mxCell id="-hy4o45iwRQPWopqjuvy-127" value="" style="edgeStyle=orthogonalEdgeStyle;rounded=0;orthogonalLoop=1;jettySize=auto;html=1;fontFamily=Calibri;fontSize=12;" edge="1" parent="1">
          <mxGeometry relative="1" as="geometry">
            <mxPoint x="1459" y="6852.58" as="sourcePoint" />
            <mxPoint x="1624" y="6852.58" as="targetPoint" />
          </mxGeometry>
        </mxCell>
        <mxCell id="-hy4o45iwRQPWopqjuvy-128" value="" style="edgeStyle=orthogonalEdgeStyle;rounded=0;orthogonalLoop=1;jettySize=auto;html=1;exitX=1;exitY=0.622;exitDx=0;exitDy=0;exitPerimeter=0;fontFamily=Calibri;fontSize=12;" edge="1" parent="1" source="-hy4o45iwRQPWopqjuvy-118">
          <mxGeometry relative="1" as="geometry">
            <mxPoint x="1459" y="6663.12" as="sourcePoint" />
            <mxPoint x="1624" y="6663.12" as="targetPoint" />
          </mxGeometry>
        </mxCell>
        <mxCell id="-hy4o45iwRQPWopqjuvy-129" value="" style="edgeStyle=orthogonalEdgeStyle;rounded=0;orthogonalLoop=1;jettySize=auto;html=1;exitX=1.02;exitY=0.614;exitDx=0;exitDy=0;exitPerimeter=0;fontFamily=Calibri;fontSize=12;" edge="1" parent="1" source="-hy4o45iwRQPWopqjuvy-122">
          <mxGeometry relative="1" as="geometry">
            <mxPoint x="736.5" y="6783" as="sourcePoint" />
            <mxPoint x="909" y="6572" as="targetPoint" />
          </mxGeometry>
        </mxCell>
        <mxCell id="-hy4o45iwRQPWopqjuvy-130" value="&lt;font style=&quot;font-size: 12px;&quot;&gt;Yes&lt;br style=&quot;font-size: 12px;&quot;&gt;&lt;/font&gt;" style="text;html=1;strokeColor=none;fillColor=none;align=center;verticalAlign=middle;whiteSpace=wrap;rounded=0;fontFamily=Calibri;fontSize=12;" vertex="1" parent="1">
          <mxGeometry x="1209" y="6613.12" width="60" height="30" as="geometry" />
        </mxCell>
        <mxCell id="-hy4o45iwRQPWopqjuvy-131" value="&lt;font style=&quot;font-size: 12px;&quot;&gt;Yes&lt;br style=&quot;font-size: 12px;&quot;&gt;&lt;/font&gt;" style="text;html=1;strokeColor=none;fillColor=none;align=center;verticalAlign=middle;whiteSpace=wrap;rounded=0;fontFamily=Calibri;fontSize=12;" vertex="1" parent="1">
          <mxGeometry x="495" y="7119" width="60" height="30" as="geometry" />
        </mxCell>
        <mxCell id="-hy4o45iwRQPWopqjuvy-132" value="&lt;font style=&quot;font-size: 12px;&quot;&gt;Yes&lt;br style=&quot;font-size: 12px;&quot;&gt;&lt;/font&gt;" style="text;html=1;strokeColor=none;fillColor=none;align=center;verticalAlign=middle;whiteSpace=wrap;rounded=0;fontFamily=Calibri;fontSize=12;" vertex="1" parent="1">
          <mxGeometry x="484" y="6739" width="60" height="30" as="geometry" />
        </mxCell>
        <mxCell id="-hy4o45iwRQPWopqjuvy-133" value="&lt;font style=&quot;font-size: 12px;&quot;&gt;Yes&lt;br style=&quot;font-size: 12px;&quot;&gt;&lt;/font&gt;" style="text;html=1;strokeColor=none;fillColor=none;align=center;verticalAlign=middle;whiteSpace=wrap;rounded=0;fontFamily=Calibri;fontSize=12;" vertex="1" parent="1">
          <mxGeometry x="1219" y="7005.5" width="60" height="30" as="geometry" />
        </mxCell>
        <mxCell id="-hy4o45iwRQPWopqjuvy-134" value="&lt;font style=&quot;font-size: 12px;&quot;&gt;Yes&lt;br style=&quot;font-size: 12px;&quot;&gt;&lt;/font&gt;" style="text;html=1;strokeColor=none;fillColor=none;align=center;verticalAlign=middle;whiteSpace=wrap;rounded=0;fontFamily=Calibri;fontSize=12;" vertex="1" parent="1">
          <mxGeometry x="1214" y="6807.87" width="60" height="30" as="geometry" />
        </mxCell>
        <mxCell id="-hy4o45iwRQPWopqjuvy-135" value="Return &lt;br style=&quot;font-size: 12px;&quot;&gt;TIMER_OK" style="rounded=1;whiteSpace=wrap;html=1;fillColor=#d5e8d4;strokeColor=#82b366;fontFamily=Calibri;fontSize=12;" vertex="1" parent="1">
          <mxGeometry x="1334" y="7248.62" width="120" height="48" as="geometry" />
        </mxCell>
        <mxCell id="-hy4o45iwRQPWopqjuvy-136" value="Return&amp;nbsp;&lt;br style=&quot;font-size: 12px;&quot;&gt;TIMER_ERROR" style="rounded=1;whiteSpace=wrap;html=1;fillColor=#f8cecc;strokeColor=#b85450;fontFamily=Calibri;fontSize=12;" vertex="1" parent="1">
          <mxGeometry x="1094" y="7239.62" width="120" height="47.5" as="geometry" />
        </mxCell>
        <mxCell id="-hy4o45iwRQPWopqjuvy-137" value="" style="endArrow=classic;html=1;rounded=0;exitX=0.5;exitY=1;exitDx=0;exitDy=0;entryX=0;entryY=0.5;entryDx=0;entryDy=0;" edge="1" parent="1" source="-hy4o45iwRQPWopqjuvy-97" target="-hy4o45iwRQPWopqjuvy-100">
          <mxGeometry width="50" height="50" relative="1" as="geometry">
            <mxPoint x="731" y="7085" as="sourcePoint" />
            <mxPoint x="1032" y="7230" as="targetPoint" />
            <Array as="points">
              <mxPoint x="968" y="7233" />
              <mxPoint x="973" y="6654" />
            </Array>
          </mxGeometry>
        </mxCell>
        <mxCell id="-hy4o45iwRQPWopqjuvy-139" value="" style="edgeStyle=orthogonalEdgeStyle;rounded=0;orthogonalLoop=1;jettySize=auto;html=1;fontFamily=Calibri;fontSize=12;" edge="1" parent="1" source="-hy4o45iwRQPWopqjuvy-140">
          <mxGeometry relative="1" as="geometry">
            <mxPoint x="-213.44999999999982" y="7576.544943820225" as="targetPoint" />
          </mxGeometry>
        </mxCell>
        <mxCell id="-hy4o45iwRQPWopqjuvy-140" value="&lt;font style=&quot;font-size: 12px;&quot;&gt;Start&lt;/font&gt;" style="rounded=1;whiteSpace=wrap;html=1;arcSize=37;fillColor=#cce5ff;strokeColor=#36393d;fontFamily=Calibri;fontSize=12;" vertex="1" parent="1">
          <mxGeometry x="-268.25" y="7428" width="110" height="40" as="geometry" />
        </mxCell>
        <mxCell id="-hy4o45iwRQPWopqjuvy-141" value="&lt;span style=&quot;font-size: 12px;&quot;&gt;end&lt;/span&gt;" style="rounded=1;whiteSpace=wrap;html=1;fillColor=#d5e8d4;strokeColor=#82b366;fontFamily=Calibri;fontSize=12;" vertex="1" parent="1">
          <mxGeometry x="-285.25" y="7761" width="146.75" height="57" as="geometry" />
        </mxCell>
        <mxCell id="-hy4o45iwRQPWopqjuvy-142" value="" style="edgeStyle=orthogonalEdgeStyle;rounded=0;orthogonalLoop=1;jettySize=auto;html=1;fontFamily=Calibri;fontSize=12;" edge="1" parent="1" source="-hy4o45iwRQPWopqjuvy-143" target="-hy4o45iwRQPWopqjuvy-141">
          <mxGeometry relative="1" as="geometry" />
        </mxCell>
        <mxCell id="-hy4o45iwRQPWopqjuvy-143" value="&lt;font style=&quot;font-size: 12px;&quot;&gt;CLEAR the prescaler&lt;/font&gt;" style="rounded=0;whiteSpace=wrap;html=1;fillColor=#d5e8d4;strokeColor=#82b366;fontFamily=Calibri;fontSize=12;" vertex="1" parent="1">
          <mxGeometry x="-289" y="7579" width="153.5" height="83" as="geometry" />
        </mxCell>
        <mxCell id="-hy4o45iwRQPWopqjuvy-144" value="TIMER_TMR2Stop" style="text;html=1;strokeColor=none;fillColor=none;align=center;verticalAlign=middle;whiteSpace=wrap;rounded=0;" vertex="1" parent="1">
          <mxGeometry x="-238" y="7385" width="60" height="30" as="geometry" />
        </mxCell>
      </root>
    </mxGraphModel>
  </diagram>
</mxfile>
